<svg xmlns="http://www.w3.org/2000/svg" viewBox="0 0 150 150">
  <path d="M.75 9.836c0 5.129.055 21.848.129 37.18l.11 27.894h3.003l.11-13.336c.074-7.324.128-19.25.128-26.5 0-7.254.055-17.199.13-22.105l.109-8.938 35.183.09c19.36.055 51.118.145 70.586.203l35.383.11v140.933l-19.906.11c-10.973.074-26.922.128-35.457.128H74.707v3.48l37.508-.019 37.07-.02V.79L121.41.676C106.063.606 72.637.55 47.145.55H.75Zm0 0" fill="white" />
  <path d="M46.941 37.676c.075 1.297.13 2.726.13 3.203v.86l1.062.202c1.336.274 5.879 1.282 6.316 1.41.332.09.332.934.239 24.653-.07 13.516-.165 27.637-.22 31.39l-.109 6.797-3.554.88-3.551.878v6.153H72.71l-.035-3.04-.059-3.058-1.738-.402a144.11 144.11 0 0 0-2.895-.641c-2.015-.422-2.527-1.102-2.78-3.813-.095-.968-.184-6.48-.184-12.234V80.441l5.183-.113c2.836-.055 9.613-.144 15.055-.2 5.418-.054 9.89-.128 9.906-.148.02-.015.094-1.867.164-4.082l.129-4.066-15.035-.129-15.04-.144V44.195l8.829-.11c4.855-.073 11.887-.128 15.625-.128h6.812l.383 2.691c.223 1.5.477 3.387.606 4.211.386 2.805.863 3.172 4.379 3.297l2.562.11V35.348H46.832Zm0 0" fill="white"/>
</svg>